<svg xmlns="http://www.w3.org/2000/svg" width="320" height="320" viewBox="0 0 320 320">
<g>
<path d="M 181.50 236.03 C176.16,237.71 171.41,238.31 161.50,238.56 C154.35,238.74 147.60,238.68 146.50,238.41 C126.78,233.70 114.23,227.11 103.04,215.59 C100.59,213.07 97.86,211.00 96.97,211.00 C96.09,211.00 90.94,212.58 85.53,214.51 C80.12,216.45 75.45,217.79 75.16,217.49 C74.86,217.19 77.07,214.44 80.06,211.37 L 85.50 205.80 L 82.00 206.50 C80.07,206.88 69.79,209.65 59.15,212.65 C48.50,215.65 39.35,217.95 38.81,217.77 C38.27,217.59 40.09,215.32 42.87,212.72 C47.14,208.73 47.57,208.00 45.71,208.02 C43.49,208.04 32.32,209.48 26.25,210.53 C24.46,210.84 23.00,210.66 23.00,210.13 C23.00,209.61 35.00,205.27 49.67,200.49 C64.34,195.71 77.03,191.54 77.87,191.22 C78.93,190.81 78.69,191.62 77.09,193.87 C75.82,195.66 74.98,197.31 75.22,197.55 C75.72,198.05 85.10,195.09 86.24,194.08 C86.65,193.71 86.44,191.97 85.77,190.21 C84.91,187.92 83.92,187.00 82.34,187.00 C81.12,187.00 79.83,186.53 79.47,185.95 C79.06,185.29 78.39,185.25 77.66,185.84 C77.02,186.35 72.49,187.56 67.59,188.53 C59.12,190.19 58.61,190.19 57.40,188.54 C56.22,186.92 55.71,187.05 50.32,190.37 C42.54,195.14 36.91,197.03 28.45,197.70 C21.56,198.25 21.36,198.19 19.56,195.45 C17.73,192.66 17.77,192.38 22.82,167.07 C25.63,153.01 28.40,138.57 28.99,135.00 C30.87,123.44 30.19,124.34 39.26,121.47 C43.79,120.03 51.10,118.38 55.50,117.79 C65.52,116.46 69.92,117.91 72.53,123.41 C73.46,125.39 74.51,126.99 74.86,126.98 C75.21,126.97 76.18,125.53 77.00,123.79 C78.28,121.09 79.46,120.36 85.00,118.84 C89.80,117.53 92.01,116.34 93.47,114.29 C94.55,112.75 99.27,107.67 103.97,102.98 C113.71,93.25 124.94,86.71 138.57,82.84 C149.03,79.86 168.03,79.64 178.50,82.37 C187.50,84.71 200.38,90.86 206.61,95.79 L 211.50 99.65 L 216.50 97.34 C222.33,94.64 227.63,94.36 230.79,96.57 C233.19,98.25 237.00,104.93 237.00,107.46 C237.00,111.07 238.94,108.47 241.63,101.25 L 244.51 93.50 L 257.91 89.11 C270.71,84.91 271.38,84.80 272.66,86.55 C274.41,88.95 274.35,93.22 272.46,100.48 C271.62,103.72 271.14,106.93 271.41,107.62 C271.67,108.31 271.52,109.01 271.06,109.19 C270.61,109.36 269.90,111.97 269.50,115.00 C269.10,118.03 269.05,120.23 269.40,119.91 C269.74,119.58 272.21,111.12 274.89,101.11 C277.57,91.10 280.05,82.61 280.41,82.26 C280.77,81.90 285.57,82.71 291.09,84.05 C299.48,86.10 301.39,86.93 302.71,89.11 C304.24,91.63 304.10,92.11 298.65,103.11 C290.83,118.87 282.06,143.96 283.27,147.12 C284.29,149.82 282.74,155.38 280.13,158.36 C277.81,161.01 271.55,164.00 268.34,164.00 C266.75,164.00 264.46,162.90 262.84,161.35 C260.08,158.71 260.06,158.70 255.79,160.36 C249.49,162.80 248.18,163.79 249.86,164.87 C250.97,165.59 250.90,166.22 249.47,168.41 C248.51,169.87 247.96,171.29 248.24,171.58 C248.53,171.86 258.05,170.24 269.40,167.97 C280.76,165.70 290.55,164.02 291.17,164.22 C291.78,164.43 283.78,168.11 273.39,172.41 C263.00,176.70 249.64,182.25 243.70,184.73 L 232.91 189.24 L 229.85 195.37 C220.39,214.34 202.43,229.45 181.50,236.03 ZM 147.00 173.13 C147.00,173.60 149.84,172.58 153.31,170.87 L 159.62 167.76 L 161.43 158.80 C162.43,153.87 163.58,150.21 164.00,150.67 C164.41,151.13 165.76,154.65 167.00,158.50 C168.24,162.35 169.59,165.87 170.00,166.33 C170.41,166.78 173.44,165.80 176.73,164.14 L 182.70 161.12 L 184.38 152.81 C186.03,144.57 190.47,127.74 189.46,133.50 C188.12,141.16 187.81,154.89 188.90,158.20 C190.69,163.62 194.37,166.52 199.33,166.40 C210.99,166.14 223.26,152.78 229.52,133.52 C231.05,128.82 232.03,124.70 231.71,124.37 C231.38,124.04 226.70,125.12 221.30,126.76 L 211.50 129.74 L 210.08 135.86 C209.30,139.23 208.88,142.21 209.15,142.48 C209.42,142.76 211.53,142.24 213.83,141.33 C216.14,140.43 218.29,139.95 218.61,140.27 C219.55,141.22 215.88,146.71 212.78,149.01 C210.81,150.46 208.78,151.02 206.23,150.81 C201.39,150.40 199.95,147.68 201.15,141.21 C203.60,128.02 217.25,111.65 222.30,115.84 C224.10,117.33 232.00,108.11 232.00,104.52 C232.00,101.05 227.84,97.00 224.30,97.01 C220.70,97.02 212.60,100.85 207.54,104.93 C202.31,109.14 196.37,117.08 192.90,124.50 C191.35,127.80 190.07,130.05 190.05,129.50 C190.03,128.95 191.56,122.67 193.46,115.54 C195.37,108.42 196.75,102.42 196.55,102.22 C195.71,101.38 184.79,105.53 184.07,106.96 C183.64,107.81 181.81,114.48 180.02,121.79 C178.22,129.10 176.48,134.82 176.16,134.50 C175.84,134.17 175.71,127.18 175.86,118.96 C176.02,110.73 175.75,104.00 175.27,104.00 C174.78,104.00 171.65,104.92 168.31,106.05 L 162.23 108.10 L 157.15 128.80 C151.94,150.06 147.00,171.61 147.00,173.13 ZM 149.50 236.94 C163.30,239.03 181.11,235.64 195.50,228.18 C207.32,222.05 220.62,209.11 226.36,198.15 C226.74,197.42 227.10,196.75 227.43,196.15 C228.68,193.85 229.44,192.43 229.05,191.92 C228.40,191.10 224.70,192.65 215.01,196.74 C213.43,197.40 211.70,198.13 209.79,198.93 C200.83,202.68 193.30,205.57 193.06,205.36 C192.82,205.14 194.60,202.94 197.02,200.48 C202.31,195.09 201.58,194.91 188.50,198.41 C161.70,205.59 155.71,207.07 154.75,206.75 C154.17,206.56 156.08,204.64 159.00,202.50 C161.92,200.36 163.81,198.44 163.19,198.23 C162.58,198.03 151.06,201.49 137.59,205.93 C124.13,210.37 112.76,214.00 112.34,214.00 C111.91,214.00 114.23,211.30 117.50,208.00 C120.77,204.70 122.78,202.00 121.97,201.99 C119.15,201.98 100.02,209.51 100.33,210.50 C101.06,212.79 116.38,224.95 122.69,228.25 C130.37,232.27 140.60,235.58 149.50,236.94 ZM 20.00 190.92 C20.00,193.75 34.85,191.21 43.46,186.91 C52.30,182.50 61.18,170.68 63.44,160.32 C64.28,156.45 61.44,153.00 57.43,153.00 C54.95,153.00 55.03,152.81 59.81,147.25 C65.70,140.41 67.77,136.58 68.94,130.30 C70.12,123.97 68.95,121.36 64.38,120.09 C59.66,118.79 48.67,120.23 39.31,123.38 L 32.50 125.67 L 30.72 135.09 C29.74,140.26 26.92,154.70 24.47,167.17 C22.01,179.64 20.00,190.33 20.00,190.92 ZM 103.03 150.60 L 103.05 153.50 L 106.07 150.00 C112.33,142.73 112.44,142.43 110.02,139.03 C108.03,136.23 107.91,135.24 108.55,127.00 L 109.26 118.01 L 112.88 117.09 C114.87,116.58 123.03,114.74 131.00,112.99 C138.98,111.25 149.11,108.53 153.52,106.94 C157.92,105.36 162.42,104.30 163.52,104.58 C164.61,104.86 167.47,104.40 169.88,103.55 C175.76,101.47 178.27,101.60 179.82,104.08 C180.72,105.53 181.47,105.85 182.31,105.16 C183.78,103.94 196.76,99.00 198.50,99.00 C199.20,99.00 200.11,100.01 200.53,101.25 C201.58,104.34 202.00,105.79 202.74,105.97 C203.34,106.13 204.17,105.43 205.74,104.10 C205.92,103.94 206.11,103.78 206.32,103.60 L 210.14 100.39 L 204.32 96.32 C189.14,85.72 173.33,81.21 155.12,82.30 C134.04,83.55 117.68,91.07 102.75,106.33 C95.53,113.72 94.10,116.67 98.57,114.98 C102.52,113.47 103.41,113.76 104.84,117.01 C105.96,119.54 105.92,122.20 104.59,133.85 C103.71,141.47 103.01,149.00 103.03,150.60 ZM 223.00 159.95 C223.00,160.41 226.04,160.02 229.75,159.08 C235.51,157.63 236.69,156.95 237.80,154.44 C240.17,149.09 240.68,148.50 243.24,148.19 C245.76,147.89 245.77,147.93 244.79,152.51 C244.25,155.06 244.02,157.35 244.28,157.62 C244.54,157.88 247.74,156.72 251.38,155.06 C256.11,152.89 258.00,151.49 258.00,150.15 C258.00,149.11 258.82,147.20 259.81,145.88 C261.12,144.16 261.95,140.18 262.79,131.49 C263.43,124.89 265.13,112.59 266.57,104.17 C268.01,95.75 268.94,88.61 268.64,88.30 C268.33,88.00 263.04,89.32 256.88,91.23 L 245.68 94.71 L 240.92 108.11 C231.00,135.99 223.00,159.15 223.00,159.95 ZM 57.00 183.45 C57.00,184.21 58.81,183.94 70.74,181.44 C72.46,181.08 73.13,180.04 73.62,176.98 C74.15,173.64 74.64,173.00 76.63,173.00 C78.73,173.00 79.00,173.46 79.00,177.00 C79.00,179.20 79.34,181.01 79.75,181.01 C80.16,181.02 83.55,180.04 87.28,178.82 C92.30,177.19 94.18,176.08 94.51,174.56 C95.61,169.62 101.09,117.76 100.57,117.24 C100.25,116.92 95.19,118.00 89.31,119.64 L 78.62 122.62 L 76.36 129.06 C75.11,132.60 70.25,146.17 65.55,159.20 C60.85,172.24 57.00,183.15 57.00,183.45 ZM 97.36 175.36 C96.77,179.70 96.87,180.00 98.99,180.00 C101.10,180.00 124.54,175.52 128.13,174.43 C129.30,174.08 130.07,171.90 130.83,166.75 C131.42,162.80 131.68,159.35 131.41,159.08 C131.14,158.81 127.27,159.36 122.80,160.30 C118.33,161.24 114.48,161.81 114.23,161.57 C113.99,161.33 119.35,154.31 126.15,145.98 C132.94,137.64 139.04,130.08 139.70,129.16 C140.89,127.52 143.54,113.21 142.79,112.46 C142.58,112.25 137.03,113.36 130.45,114.92 C123.88,116.49 116.70,118.18 114.50,118.67 L 110.50 119.57 L 110.21 127.40 L 109.91 135.24 L 113.71 134.57 C115.79,134.20 118.29,133.66 119.25,133.38 C120.21,133.10 121.00,133.31 121.00,133.84 C121.00,134.38 115.82,140.99 109.50,148.52 C98.78,161.28 98.00,162.51 98.00,166.47 C98.00,168.81 97.71,172.81 97.36,175.36 ZM 87.53 190.05 C88.36,191.67 89.32,193.00 89.64,193.00 C89.97,193.00 95.87,191.20 102.77,188.99 C109.67,186.79 115.55,185.21 115.83,185.50 C116.12,185.79 115.07,187.36 113.50,189.00 C111.93,190.64 110.94,192.27 111.30,192.63 C111.66,192.99 120.09,190.61 130.04,187.34 C139.99,184.07 148.30,181.68 148.51,182.02 C148.72,182.36 148.00,184.12 146.89,185.93 C145.79,187.74 145.07,189.41 145.29,189.63 C145.51,189.85 157.42,186.18 171.75,181.49 L 197.81 172.95 L 193.15 168.13 C190.22,165.09 188.38,163.81 188.17,164.68 C187.81,166.20 174.97,173.00 172.46,173.00 C171.52,173.00 169.99,170.99 168.69,168.02 C166.23,162.43 165.01,161.68 164.99,165.75 C164.96,171.62 163.94,172.91 156.16,176.99 L 148.55 180.97 L 144.50 175.90 L 139.50 177.89 C134.48,179.90 105.57,186.00 101.10,186.00 C99.79,186.00 98.18,185.26 97.52,184.36 C96.42,182.85 95.94,182.86 91.16,184.45 C88.32,185.39 86.00,186.37 86.00,186.63 C86.00,186.89 86.69,188.43 87.53,190.05 ZM 267.00 137.61 C267.00,137.82 269.63,138.00 272.85,138.00 L 278.70 138.00 L 281.96 128.25 C286.29,115.27 291.41,102.91 295.66,95.15 C297.58,91.66 299.00,88.69 298.82,88.55 C298.64,88.41 295.35,87.54 291.50,86.61 C287.65,85.67 283.73,84.68 282.78,84.40 C281.53,84.03 280.88,84.65 280.39,86.69 C280.02,88.24 276.85,100.24 273.36,113.36 C269.86,126.48 267.00,137.40 267.00,137.61 ZM 133.00 171.94 L 133.00 171.98 C133.00,172.35 133.00,172.62 133.13,172.76 C133.48,173.13 134.72,172.65 139.19,170.95 L 139.39 170.87 C144.47,168.93 145.01,168.42 145.57,165.12 C146.51,159.56 152.67,134.96 156.68,120.73 C158.67,113.70 160.06,107.73 159.78,107.44 C159.27,106.94 149.61,110.29 147.32,111.77 C146.34,112.40 133.00,168.47 133.00,171.94 ZM 194.00 179.29 C194.00,179.80 194.56,180.01 195.25,179.77 C195.94,179.52 205.35,176.91 216.17,173.96 C233.84,169.14 235.89,168.36 236.28,166.31 C236.75,163.85 236.68,163.85 228.00,166.10 C225.02,166.88 224.25,166.71 222.78,164.93 C220.90,162.66 220.74,162.70 214.33,167.59 C212.03,169.33 207.76,171.32 204.83,172.00 C199.89,173.15 194.00,177.12 194.00,179.29 ZM 262.43 157.23 C264.26,158.49 269.07,158.07 271.89,156.41 C275.28,154.41 279.00,149.07 279.00,146.21 C279.00,143.15 274.83,140.66 271.09,141.48 C263.10,143.23 257.33,153.74 262.43,157.23 ZM 45.52 170.95 C43.86,171.95 41.42,173.10 40.10,173.50 C38.11,174.11 37.81,173.94 38.35,172.53 C38.71,171.60 39.00,169.78 39.00,168.49 C39.00,167.20 39.67,165.48 40.48,164.66 C42.60,162.54 49.71,161.51 51.57,163.06 C52.88,164.14 52.78,164.60 50.80,166.71 C49.55,168.04 47.18,169.95 45.52,170.95 ZM 49.36 146.04 C44.57,151.17 42.49,152.28 43.37,149.25 C43.65,148.29 44.37,145.59 44.98,143.26 C46.10,138.91 49.00,137.02 52.50,138.36 C54.90,139.28 54.30,140.77 49.36,146.04 ZM 248.56 131.25 C247.96,135.41 247.58,136.00 245.47,136.00 C243.99,136.00 243.22,135.52 243.48,134.75 C243.70,134.06 245.31,128.77 247.04,123.00 C248.77,117.22 250.52,112.15 250.93,111.72 C251.34,111.28 251.12,114.43 250.46,118.72 C249.79,123.00 248.94,128.64 248.56,131.25 ZM 82.35 156.75 C81.93,159.15 81.25,160.00 79.77,160.00 C78.35,160.00 77.91,159.49 78.25,158.25 C78.51,157.29 79.98,151.88 81.51,146.23 C83.04,140.58 84.48,136.15 84.71,136.38 C85.10,136.76 83.63,149.45 82.35,156.75 ZM 127.04 155.86 C127.01,156.89 127.90,157.05 130.75,156.52 C132.81,156.14 134.55,155.75 134.60,155.66 C135.34,154.50 136.93,145.60 136.48,145.14 C135.67,144.34 127.09,154.09 127.04,155.86 ZM 229.00 121.35 C229.00,122.14 229.84,122.15 232.69,121.39 C234.16,120.99 235.37,119.36 236.38,116.40 C237.20,113.98 237.49,112.00 237.01,112.00 C236.08,112.00 229.00,120.27 229.00,121.35 ZM 238.29 166.30 C238.78,167.59 239.52,167.71 242.19,166.95 C244.00,166.43 245.61,166.00 245.75,166.00 C245.90,166.00 245.45,165.10 244.77,164.00 C243.30,161.65 242.07,161.50 239.53,163.36 C238.43,164.16 237.92,165.36 238.29,166.30 ZM 217.00 125.02 C217.00,126.24 217.02,126.24 220.85,124.90 C224.08,123.78 224.80,122.61 222.96,121.47 C221.75,120.73 217.00,123.56 217.00,125.02 ZM 205.56 148.09 C206.25,149.22 209.00,149.30 209.00,148.19 C209.00,147.75 208.40,146.56 207.66,145.55 C206.41,143.84 206.28,143.83 205.66,145.45 C205.29,146.40 205.25,147.59 205.56,148.09 ZM 64.00 152.62 C64.00,153.38 64.45,154.00 65.00,154.00 C65.55,154.00 66.00,153.59 66.00,153.08 C66.00,152.58 66.31,151.34 66.69,150.33 C67.29,148.72 67.17,148.66 65.69,149.87 C64.76,150.63 64.00,151.86 64.00,152.62 Z" fill="rgb(236,21,7)"/>
<path d="M 147.00 173.13 C147.00,171.61 151.94,150.06 157.15,128.80 L 162.23 108.10 L 168.31 106.05 C171.65,104.92 174.78,104.00 175.27,104.00 C175.75,104.00 176.02,110.73 175.86,118.96 C175.71,127.18 175.84,134.17 176.16,134.50 C176.48,134.82 178.22,129.10 180.02,121.79 C181.81,114.48 183.64,107.81 184.07,106.96 C184.79,105.53 195.71,101.38 196.55,102.22 C196.75,102.42 195.37,108.42 193.46,115.54 C191.56,122.67 190.03,128.95 190.05,129.50 C190.07,130.05 191.35,127.80 192.90,124.50 C196.37,117.08 202.31,109.14 207.54,104.93 C212.60,100.85 220.70,97.02 224.30,97.01 C227.84,97.00 232.00,101.05 232.00,104.52 C232.00,108.11 224.10,117.33 222.30,115.84 C217.25,111.65 203.60,128.02 201.15,141.21 C199.95,147.68 201.39,150.40 206.23,150.81 C208.78,151.02 210.81,150.46 212.78,149.01 C215.88,146.71 219.55,141.22 218.61,140.27 C218.29,139.95 216.14,140.43 213.83,141.33 C211.53,142.24 209.42,142.76 209.15,142.48 C208.88,142.21 209.30,139.23 210.08,135.86 L 211.50 129.74 L 221.30 126.76 C226.70,125.12 231.38,124.04 231.71,124.37 C232.03,124.70 231.05,128.82 229.52,133.52 C223.26,152.78 210.99,166.14 199.33,166.40 C194.37,166.52 190.69,163.62 188.90,158.20 C187.81,154.89 188.12,141.16 189.46,133.50 C190.47,127.74 186.03,144.57 184.38,152.81 L 182.70 161.12 L 176.73 164.14 C173.44,165.80 170.41,166.78 170.00,166.33 C169.59,165.87 168.24,162.35 167.00,158.50 C165.76,154.65 164.41,151.13 164.00,150.67 C163.58,150.21 162.43,153.87 161.43,158.80 L 159.62 167.76 L 153.31 170.87 C149.84,172.58 147.00,173.60 147.00,173.13 ZM 20.00 190.92 C20.00,190.33 22.01,179.64 24.47,167.17 C26.92,154.70 29.74,140.26 30.72,135.09 L 32.50 125.67 L 39.31 123.38 C48.67,120.23 59.66,118.79 64.38,120.09 C68.95,121.36 70.12,123.97 68.94,130.30 C67.77,136.58 65.70,140.41 59.81,147.25 C55.03,152.81 54.95,153.00 57.43,153.00 C61.44,153.00 64.28,156.45 63.44,160.32 C61.18,170.68 52.30,182.50 43.46,186.91 C34.85,191.21 20.00,193.75 20.00,190.92 ZM 223.00 159.95 C223.00,159.15 231.00,135.99 240.92,108.11 L 245.68 94.71 L 256.88 91.23 C263.04,89.32 268.33,88.00 268.64,88.30 C268.94,88.61 268.01,95.75 266.57,104.17 C265.13,112.59 263.43,124.89 262.79,131.49 C261.95,140.18 261.12,144.16 259.81,145.88 C258.82,147.20 258.00,149.11 258.00,150.15 C258.00,151.49 256.11,152.89 251.38,155.06 C247.74,156.72 244.54,157.88 244.28,157.62 C244.02,157.35 244.25,155.06 244.79,152.51 C245.77,147.93 245.76,147.89 243.24,148.19 C240.68,148.50 240.17,149.09 237.80,154.44 C236.69,156.95 235.51,157.63 229.75,159.08 C226.04,160.02 223.00,160.41 223.00,159.95 ZM 57.00 183.45 C57.00,183.15 60.85,172.24 65.55,159.20 C70.25,146.17 75.11,132.60 76.36,129.06 L 78.62 122.62 L 89.31 119.64 C95.19,118.00 100.25,116.92 100.57,117.24 C101.09,117.76 95.61,169.62 94.51,174.56 C94.18,176.08 92.30,177.19 87.28,178.82 C83.55,180.04 80.16,181.02 79.75,181.01 C79.34,181.01 79.00,179.20 79.00,177.00 C79.00,173.46 78.73,173.00 76.63,173.00 C74.64,173.00 74.15,173.64 73.62,176.98 C73.13,180.04 72.46,181.08 70.74,181.44 C58.81,183.94 57.00,184.21 57.00,183.45 ZM 97.36 175.36 C97.71,172.81 98.00,168.81 98.00,166.47 C98.00,162.51 98.78,161.28 109.50,148.52 C115.82,140.99 121.00,134.38 121.00,133.84 C121.00,133.31 120.21,133.10 119.25,133.38 C118.29,133.66 115.79,134.20 113.71,134.57 L 109.91 135.24 L 110.21 127.40 L 110.50 119.57 L 114.50 118.67 C116.70,118.18 123.88,116.49 130.45,114.92 C137.03,113.36 142.58,112.25 142.79,112.46 C143.54,113.21 140.89,127.52 139.70,129.16 C139.04,130.08 132.94,137.64 126.15,145.98 C119.35,154.31 113.99,161.33 114.23,161.57 C114.48,161.81 118.33,161.24 122.80,160.30 C127.27,159.36 131.14,158.81 131.41,159.08 C131.68,159.35 131.42,162.80 130.83,166.75 C130.07,171.90 129.30,174.08 128.13,174.43 C124.54,175.52 101.10,180.00 98.99,180.00 C96.87,180.00 96.77,179.70 97.36,175.36 ZM 267.00 137.61 C267.00,137.40 269.86,126.48 273.36,113.36 C276.85,100.24 280.02,88.24 280.39,86.69 C280.88,84.65 281.53,84.03 282.78,84.40 C283.73,84.68 287.65,85.67 291.50,86.61 C295.35,87.54 298.64,88.41 298.82,88.55 C299.00,88.69 297.58,91.66 295.66,95.15 C291.41,102.91 286.29,115.27 281.96,128.25 L 278.70 138.00 L 272.85 138.00 C269.63,138.00 267.00,137.82 267.00,137.61 ZM 133.00 171.94 C133.00,168.47 146.34,112.40 147.32,111.77 C149.61,110.29 159.27,106.94 159.78,107.44 C160.06,107.73 158.67,113.70 156.68,120.73 C152.67,134.96 146.51,159.56 145.57,165.12 C145.01,168.42 144.47,168.93 139.39,170.87 L 139.19 170.95 C134.72,172.65 133.48,173.13 133.13,172.76 C133.00,172.62 133.00,172.35 133.00,171.98 ZM 262.43 157.23 C257.33,153.74 263.10,143.23 271.09,141.48 C274.83,140.66 279.00,143.15 279.00,146.21 C279.00,149.07 275.28,154.41 271.89,156.41 C269.07,158.07 264.26,158.49 262.43,157.23 ZM 45.52 170.95 C47.18,169.95 49.55,168.04 50.80,166.71 C52.78,164.60 52.88,164.14 51.57,163.06 C49.71,161.51 42.60,162.54 40.48,164.66 C39.67,165.48 39.00,167.20 39.00,168.49 C39.00,169.78 38.71,171.60 38.35,172.53 C37.81,173.94 38.11,174.11 40.10,173.50 C41.42,173.10 43.86,171.95 45.52,170.95 ZM 49.36 146.04 C54.30,140.77 54.90,139.28 52.50,138.36 C49.00,137.02 46.10,138.91 44.98,143.26 C44.37,145.59 43.65,148.29 43.37,149.25 C42.49,152.28 44.57,151.17 49.36,146.04 ZM 248.56 131.25 C248.94,128.64 249.79,123.00 250.46,118.72 C251.12,114.43 251.34,111.28 250.93,111.72 C250.52,112.15 248.77,117.22 247.04,123.00 C245.31,128.77 243.70,134.06 243.48,134.75 C243.22,135.52 243.99,136.00 245.47,136.00 C247.58,136.00 247.96,135.41 248.56,131.25 ZM 82.35 156.75 C83.63,149.45 85.10,136.76 84.71,136.38 C84.48,136.15 83.04,140.58 81.51,146.23 C79.98,151.88 78.51,157.29 78.25,158.25 C77.91,159.49 78.35,160.00 79.77,160.00 C81.25,160.00 81.93,159.15 82.35,156.75 Z" fill="rgb(244,207,7)"/>
<path d="M 273.11 97.80 C272.91,99.31 272.68,101.02 272.39,103.00 C271.36,110.21 273.21,106.82 276.14,96.51 C275.73,97.98 275.31,99.53 274.89,101.11 C272.21,111.12 269.74,119.58 269.40,119.91 C269.05,120.23 269.10,118.03 269.50,115.00 C269.90,111.97 270.61,109.36 271.06,109.19 C271.52,109.01 271.67,108.31 271.41,107.62 C271.14,106.93 271.62,103.72 272.46,100.48 C272.71,99.54 272.92,98.65 273.11,97.80 ZM 64.00 152.62 C64.00,151.86 64.76,150.63 65.69,149.87 C67.17,148.66 67.29,148.72 66.69,150.33 C66.31,151.34 66.00,152.58 66.00,153.08 C66.00,153.59 65.55,154.00 65.00,154.00 C64.45,154.00 64.00,153.38 64.00,152.62 ZM 170.65 171.55 C170.07,170.85 169.48,169.95 168.98,168.96 C166.90,164.88 165.78,164.52 164.90,167.94 C164.96,167.29 164.98,166.56 164.99,165.75 C165.01,161.68 166.23,162.43 168.69,168.02 C169.32,169.46 170.00,170.68 170.65,171.55 ZM 164.26 170.74 C163.58,172.86 162.05,173.90 156.24,176.95 C161.10,174.40 163.30,172.94 164.26,170.74 ZM 272.66 86.55 C271.38,84.80 270.71,84.91 257.91,89.11 C270.89,84.86 271.36,84.78 272.75,86.61 C273.14,87.13 273.42,87.70 273.58,88.50 C273.37,87.74 273.06,87.10 272.66,86.55 ZM 280.44 82.24 C280.45,82.22 280.46,82.21 280.46,82.20 C280.79,81.88 285.57,82.71 291.09,84.05 C285.69,82.74 280.97,81.93 280.44,82.24 ZM 181.33 169.30 C177.72,171.23 173.79,173.00 172.55,173.00 C172.53,173.00 172.52,173.00 172.51,173.00 C173.85,172.95 177.75,171.21 181.33,169.30 ZM 276.88 93.82 C277.84,90.30 278.78,87.07 279.47,84.92 C278.82,86.99 277.91,90.12 276.88,93.82 Z" fill="rgb(252,160,154)"/>
<path d="M 0.00 160.00 L 0.00 0.00 L 160.00 0.00 L 320.00 0.00 L 320.00 160.00 L 320.00 320.00 L 160.00 320.00 L 0.00 320.00 L 0.00 160.00 ZM 181.50 236.03 C202.43,229.45 220.39,214.34 229.85,195.37 L 232.91 189.24 L 243.70 184.73 C249.64,182.25 263.00,176.70 273.39,172.41 C283.78,168.11 291.78,164.43 291.17,164.22 C290.55,164.02 280.76,165.70 269.40,167.97 C258.05,170.24 248.53,171.86 248.24,171.58 C247.96,171.29 248.51,169.87 249.47,168.41 C250.90,166.22 250.97,165.59 249.86,164.87 C248.18,163.79 249.49,162.80 255.79,160.36 C260.06,158.70 260.08,158.71 262.84,161.35 C264.46,162.90 266.75,164.00 268.34,164.00 C271.55,164.00 277.81,161.01 280.13,158.36 C282.74,155.38 284.29,149.82 283.27,147.12 C282.06,143.96 290.83,118.87 298.65,103.11 C304.10,92.11 304.24,91.63 302.71,89.11 C301.39,86.93 299.48,86.10 291.09,84.05 C285.57,82.71 280.79,81.88 280.46,82.20 C280.14,82.53 278.49,87.90 276.79,94.15 C273.50,106.27 271.28,110.73 272.39,103.00 C274.11,91.03 274.16,88.49 272.75,86.61 C271.36,84.78 270.89,84.86 257.91,89.11 L 244.51 93.50 L 241.63 101.25 C238.94,108.47 237.00,111.07 237.00,107.46 C237.00,104.93 233.19,98.25 230.79,96.57 C227.63,94.36 222.33,94.64 216.50,97.34 L 211.50 99.65 L 206.61 95.79 C200.38,90.86 187.50,84.71 178.50,82.37 C168.03,79.64 149.03,79.86 138.57,82.84 C124.94,86.71 113.71,93.25 103.97,102.98 C99.27,107.67 94.55,112.75 93.47,114.29 C92.01,116.34 89.80,117.53 85.00,118.84 C79.46,120.36 78.28,121.09 77.00,123.79 C76.18,125.53 75.21,126.97 74.86,126.98 C74.51,126.99 73.46,125.39 72.53,123.41 C69.92,117.91 65.52,116.46 55.50,117.79 C51.10,118.38 43.79,120.03 39.26,121.47 C30.19,124.34 30.87,123.44 28.99,135.00 C28.40,138.57 25.63,153.01 22.82,167.07 C17.77,192.38 17.73,192.66 19.56,195.45 C21.36,198.19 21.56,198.25 28.45,197.70 C36.91,197.03 42.54,195.14 50.32,190.37 C55.71,187.05 56.22,186.92 57.40,188.54 C58.61,190.19 59.12,190.19 67.59,188.53 C72.49,187.56 77.02,186.35 77.66,185.84 C78.39,185.25 79.06,185.29 79.47,185.95 C79.83,186.53 81.12,187.00 82.34,187.00 C83.92,187.00 84.91,187.92 85.77,190.21 C86.44,191.97 86.65,193.71 86.24,194.08 C85.10,195.09 75.72,198.05 75.22,197.55 C74.98,197.31 75.82,195.66 77.09,193.87 C78.69,191.62 78.93,190.81 77.87,191.22 C77.03,191.54 64.34,195.71 49.67,200.49 C35.00,205.27 23.00,209.61 23.00,210.13 C23.00,210.66 24.46,210.84 26.25,210.53 C32.32,209.48 43.49,208.04 45.71,208.02 C47.57,208.00 47.14,208.73 42.87,212.72 C40.09,215.32 38.27,217.59 38.81,217.77 C39.35,217.95 48.50,215.65 59.15,212.65 C69.79,209.65 80.07,206.88 82.00,206.50 L 85.50 205.80 L 80.06 211.37 C77.07,214.44 74.86,217.19 75.16,217.49 C75.45,217.79 80.12,216.45 85.53,214.51 C90.94,212.58 96.09,211.00 96.97,211.00 C97.86,211.00 100.59,213.07 103.04,215.59 C114.23,227.11 126.78,233.70 146.50,238.41 C147.60,238.68 154.35,238.74 161.50,238.56 C171.41,238.31 176.16,237.71 181.50,236.03 ZM 149.50 236.94 C140.60,235.58 130.37,232.27 122.69,228.25 C116.38,224.95 101.06,212.79 100.33,210.50 C100.02,209.51 119.15,201.98 121.97,201.99 C122.78,202.00 120.77,204.70 117.50,208.00 C114.23,211.30 111.91,214.00 112.34,214.00 C112.76,214.00 124.13,210.37 137.59,205.93 C151.06,201.49 162.58,198.03 163.19,198.23 C163.81,198.44 161.92,200.36 159.00,202.50 C156.08,204.64 154.17,206.56 154.75,206.75 C155.71,207.07 161.70,205.59 188.50,198.41 C201.58,194.91 202.31,195.09 197.02,200.48 C194.60,202.94 192.82,205.14 193.06,205.36 C193.30,205.57 200.83,202.68 209.79,198.93 C232.56,189.39 230.91,189.47 226.36,198.15 C220.62,209.11 207.32,222.05 195.50,228.18 C181.11,235.64 163.30,239.03 149.50,236.94 ZM 87.53 190.05 C86.69,188.43 86.00,186.89 86.00,186.63 C86.00,186.37 88.32,185.39 91.16,184.45 C95.94,182.86 96.42,182.85 97.52,184.36 C98.18,185.26 99.79,186.00 101.10,186.00 C105.57,186.00 134.48,179.90 139.50,177.89 L 144.50 175.90 L 146.53 178.44 L 148.55 180.97 L 156.24 176.95 C163.11,173.34 163.99,172.55 164.58,169.45 C165.51,164.48 166.63,164.36 168.98,168.96 C170.11,171.18 171.72,173.00 172.55,173.00 C174.99,173.00 187.81,166.17 188.17,164.68 C188.38,163.81 190.22,165.09 193.15,168.13 L 197.81 172.95 L 171.75 181.49 C157.42,186.18 145.51,189.85 145.29,189.63 C145.07,189.41 145.79,187.74 146.89,185.93 C148.00,184.12 148.72,182.36 148.51,182.02 C148.30,181.68 139.99,184.07 130.04,187.34 C120.09,190.61 111.66,192.99 111.30,192.63 C110.94,192.27 111.93,190.64 113.50,189.00 C115.07,187.36 116.12,185.79 115.83,185.50 C115.55,185.21 109.67,186.79 102.77,188.99 C95.87,191.20 89.97,193.00 89.64,193.00 C89.32,193.00 88.36,191.67 87.53,190.05 ZM 194.00 179.29 C194.00,177.12 199.89,173.15 204.83,172.00 C207.76,171.32 212.03,169.33 214.33,167.59 C220.74,162.70 220.90,162.66 222.78,164.93 C224.25,166.71 225.02,166.88 228.00,166.10 C236.68,163.85 236.75,163.85 236.28,166.31 C235.89,168.36 233.84,169.14 216.17,173.96 C205.35,176.91 195.94,179.52 195.25,179.77 C194.56,180.01 194.00,179.80 194.00,179.29 ZM 238.29 166.30 C237.92,165.36 238.43,164.16 239.53,163.36 C242.07,161.50 243.30,161.65 244.77,164.00 C245.45,165.10 245.90,166.00 245.75,166.00 C245.61,166.00 244.00,166.43 242.19,166.95 C239.52,167.71 238.78,167.59 238.29,166.30 ZM 127.04 155.86 C127.09,154.09 135.67,144.34 136.48,145.14 C136.93,145.60 135.34,154.50 134.60,155.66 C134.55,155.75 132.81,156.14 130.75,156.52 C127.90,157.05 127.01,156.89 127.04,155.86 ZM 103.03 150.60 C103.01,149.00 103.71,141.47 104.59,133.85 C105.92,122.20 105.96,119.54 104.84,117.01 C103.41,113.76 102.52,113.47 98.57,114.98 C94.10,116.67 95.53,113.72 102.75,106.33 C117.68,91.07 134.04,83.55 155.12,82.30 C173.33,81.21 189.14,85.72 204.32,96.32 L 210.14 100.39 L 206.32 103.60 C202.23,107.05 202.55,107.18 200.53,101.25 C200.11,100.01 199.20,99.00 198.50,99.00 C196.76,99.00 183.78,103.94 182.31,105.16 C181.47,105.85 180.72,105.53 179.82,104.08 C178.27,101.60 175.76,101.47 169.88,103.55 C167.47,104.40 164.61,104.86 163.52,104.58 C162.42,104.30 157.92,105.36 153.52,106.94 C149.11,108.53 138.98,111.25 131.00,112.99 C123.03,114.74 114.87,116.58 112.88,117.09 L 109.26 118.01 L 108.55 127.00 C107.91,135.24 108.03,136.23 110.02,139.03 C112.44,142.43 112.33,142.73 106.07,150.00 L 103.05 153.50 L 103.03 150.60 ZM 205.56 148.09 C205.25,147.59 205.29,146.40 205.66,145.45 C206.28,143.83 206.41,143.84 207.66,145.55 C208.40,146.56 209.00,147.75 209.00,148.19 C209.00,149.30 206.25,149.22 205.56,148.09 ZM 217.00 125.02 C217.00,123.56 221.75,120.73 222.96,121.47 C224.80,122.61 224.08,123.78 220.85,124.90 C217.02,126.24 217.00,126.24 217.00,125.02 ZM 229.00 121.35 C229.00,120.27 236.08,112.00 237.01,112.00 C237.49,112.00 237.20,113.98 236.38,116.40 C235.37,119.36 234.16,120.99 232.69,121.39 C229.84,122.15 229.00,122.14 229.00,121.35 Z" fill="rgb(254,254,253)"/>
</g>
</svg>